<?xml version="1.0" encoding="utf-8" ?>
<svg baseProfile="tiny" height="1024" version="1.2" width="1024" xmlns="http://www.w3.org/2000/svg" xmlns:ev="http://www.w3.org/2001/xml-events" xmlns:xlink="http://www.w3.org/1999/xlink"><defs /><rect fill="black" height="1024" width="1024" x="0" y="0" /><polygon fill="#007BFF" points="803,733" /><polygon fill="#007BFF" points="799,733" /><polygon fill="#007BFF" points="796,733" /><polygon fill="#007BFF" points="794,733" /><polygon fill="#007BFF" points="792,733" /><polygon fill="#007BFF" points="789,733" /><polygon fill="#007BFF" points="786,733" /><polygon fill="#007BFF" points="784,733" /><polygon fill="#007BFF" points="776,733" /><polygon fill="#007BFF" points="760,733" /><polygon fill="#007BFF" points="752,733" /><polygon fill="#007BFF" points="746,733" /><polygon fill="#007BFF" points="736,733 744,733" /><polygon fill="#007BFF" points="700,733" /><polygon fill="#007BFF" points="698,733" /><polygon fill="#007BFF" points="696,733" /><polygon fill="#007BFF" points="682,733" /><polygon fill="#007BFF" points="678,733" /><polygon fill="#007BFF" points="674,733 675,733" /><polygon fill="#007BFF" points="671,733 672,733" /><polygon fill="#007BFF" points="669,733" /><polygon fill="#007BFF" points="352,733 354,733" /><polygon fill="#007BFF" points="336,733" /><polygon fill="#007BFF" points="310,733" /><polygon fill="#007BFF" points="306,733 307,733" /><polygon fill="#007BFF" points="304,733" /><polygon fill="#007BFF" points="300,733 301,733" /><polygon fill="#007BFF" points="298,733" /><polygon fill="#007BFF" points="296,733" /><polygon fill="#007BFF" points="281,733 287,733" /><polygon fill="#007BFF" points="277,733 278,733" /><polygon fill="#007BFF" points="264,733" /><polygon fill="#007BFF" points="258,733" /><polygon fill="#007BFF" points="240,733" /><polygon fill="#007BFF" points="231,733 232,733" /><polygon fill="#007BFF" points="224,733 225,733" /><polygon fill="#007BFF" points="222,733" /><polygon fill="#007BFF" points="359,732" /><polygon fill="#007BFF" points="218,732 218,733" /><polygon fill="#007BFF" points="664,731" /><polygon fill="#007BFF" points="365,729" /><polygon fill="#007BFF" points="812,728" /><polygon fill="#007BFF" points="219,728 219,729" /><polygon fill="#007BFF" points="665,727" /><polygon fill="#007BFF" points="220,725" /><polygon fill="#007BFF" points="815,724" /><polygon fill="#007BFF" points="816,722" /><polygon fill="#007BFF" points="666,722" /><polygon fill="#007BFF" points="372,722" /><polygon fill="#007BFF" points="221,720 221,721" /><polygon fill="#007BFF" points="817,719" /><polygon fill="#007BFF" points="374,719" /><polygon fill="#007BFF" points="375,717" /><polygon fill="#007BFF" points="818,716" /><polygon fill="#007BFF" points="222,716" /><polygon fill="#007BFF" points="668,714" /><polygon fill="#007BFF" points="376,714" /><polygon fill="#007BFF" points="819,711 819,712" /><polygon fill="#007BFF" points="223,711 223,712" /><polygon fill="#007BFF" points="669,710" /><polygon fill="#007BFF" points="377,710" /><polygon fill="#007BFF" points="820,707" /><polygon fill="#007BFF" points="224,707" /><polygon fill="#007BFF" points="670,706" /><polygon fill="#007BFF" points="378,706" /><polygon fill="#007BFF" points="821,703" /><polygon fill="#007BFF" points="225,703" /><polygon fill="#007BFF" points="671,702" /><polygon fill="#007BFF" points="379,702" /><polygon fill="#007BFF" points="822,699" /><polygon fill="#007BFF" points="226,699" /><polygon fill="#007BFF" points="380,697" /><polygon fill="#007BFF" points="227,695" /><polygon fill="#007BFF" points="673,694" /><polygon fill="#007BFF" points="381,693" /><polygon fill="#007BFF" points="824,690" /><polygon fill="#007BFF" points="674,690" /><polygon fill="#007BFF" points="382,689" /><polygon fill="#007BFF" points="825,686" /><polygon fill="#007BFF" points="229,686" /><polygon fill="#007BFF" points="675,685" /><polygon fill="#007BFF" points="383,685" /><polygon fill="#007BFF" points="826,682" /><polygon fill="#007BFF" points="230,682" /><polygon fill="#007BFF" points="676,681" /><polygon fill="#007BFF" points="384,680" /><polygon fill="#007BFF" points="827,678" /><polygon fill="#007BFF" points="231,678" /><polygon fill="#007BFF" points="677,677" /><polygon fill="#007BFF" points="385,676" /><polygon fill="#007BFF" points="828,674" /><polygon fill="#007BFF" points="678,673" /><polygon fill="#007BFF" points="386,672" /><polygon fill="#007BFF" points="829,670" /><polygon fill="#007BFF" points="679,669" /><polygon fill="#007BFF" points="387,668" /><polygon fill="#007BFF" points="830,665" /><polygon fill="#007BFF" points="680,665" /><polygon fill="#007BFF" points="234,665" /><polygon fill="#007BFF" points="388,664" /><polygon fill="#007BFF" points="681,661" /><polygon fill="#007BFF" points="235,661" /><polygon fill="#007BFF" points="389,660" /><polygon fill="#007BFF" points="832,657" /><polygon fill="#007BFF" points="682,657" /><polygon fill="#007BFF" points="236,657" /><polygon fill="#007BFF" points="833,653" /><polygon fill="#007BFF" points="237,653" /><polygon fill="#007BFF" points="683,652 683,653" /><polygon fill="#007BFF" points="391,651" /><polygon fill="#007BFF" points="834,649" /><polygon fill="#007BFF" points="684,648" /><polygon fill="#007BFF" points="238,648 238,649" /><polygon fill="#007BFF" points="392,647" /><polygon fill="#007BFF" points="835,645" /><polygon fill="#007BFF" points="685,644" /><polygon fill="#007BFF" points="239,644" /><polygon fill="#007BFF" points="393,643" /><polygon fill="#007BFF" points="836,640" /><polygon fill="#007BFF" points="686,640" /><polygon fill="#007BFF" points="240,640" /><polygon fill="#007BFF" points="394,639" /><polygon fill="#007BFF" points="837,636" /><polygon fill="#007BFF" points="687,636" /><polygon fill="#007BFF" points="395,635" /><polygon fill="#007BFF" points="838,632" /><polygon fill="#007BFF" points="688,631 688,632" /><polygon fill="#007BFF" points="242,631 242,632" /><polygon fill="#007BFF" points="396,630 396,631" /><polygon fill="#007BFF" points="689,627" /><polygon fill="#007BFF" points="243,627 243,628" /><polygon fill="#007BFF" points="840,624" /><polygon fill="#007BFF" points="690,623" /><polygon fill="#007BFF" points="244,623" /><polygon fill="#007BFF" points="398,622" /><polygon fill="#007BFF" points="841,619" /><polygon fill="#007BFF" points="691,619" /><polygon fill="#007BFF" points="245,619" /><polygon fill="#007BFF" points="399,618" /><polygon fill="#007BFF" points="842,615" /><polygon fill="#007BFF" points="692,615" /><polygon fill="#007BFF" points="246,615" /><polygon fill="#007BFF" points="400,614" /><polygon fill="#007BFF" points="843,611" /><polygon fill="#007BFF" points="693,611" /><polygon fill="#007BFF" points="247,610" /><polygon fill="#007BFF" points="401,609" /><polygon fill="#007BFF" points="844,607" /><polygon fill="#007BFF" points="694,607" /><polygon fill="#007BFF" points="248,606 248,607" /><polygon fill="#007BFF" points="845,603" /><polygon fill="#007BFF" points="695,602 695,603" /><polygon fill="#007BFF" points="249,602" /><polygon fill="#007BFF" points="846,599" /><polygon fill="#007BFF" points="696,598" /><polygon fill="#007BFF" points="250,598" /><polygon fill="#007BFF" points="847,594" /><polygon fill="#007BFF" points="697,594" /><polygon fill="#007BFF" points="406,593" /><polygon fill="#007BFF" points="407,591" /><polygon fill="#007BFF" points="848,590" /><polygon fill="#007BFF" points="698,590" /><polygon fill="#007BFF" points="252,589" /><polygon fill="#007BFF" points="849,586" /><polygon fill="#007BFF" points="699,586" /><polygon fill="#007BFF" points="410,586" /><polygon fill="#007BFF" points="253,585" /><polygon fill="#007BFF" points="412,583" /><polygon fill="#007BFF" points="700,581" /><polygon fill="#007BFF" points="254,581 254,582" /><polygon fill="#007BFF" points="851,577 851,578" /><polygon fill="#007BFF" points="701,577" /><polygon fill="#007BFF" points="255,577" /><polygon fill="#007BFF" points="418,576 415,579" /><polygon fill="#007BFF" points="852,573" /><polygon fill="#007BFF" points="702,573" /><polygon fill="#007BFF" points="256,573" /><polygon fill="#007BFF" points="426,570" /><polygon fill="#007BFF" points="853,569" /><polygon fill="#007BFF" points="703,569" /><polygon fill="#007BFF" points="258,568" /><polygon fill="#007BFF" points="432,567" /><polygon fill="#007BFF" points="435,566" /><polygon fill="#007BFF" points="259,566" /><polygon fill="#007BFF" points="854,565" /><polygon fill="#007BFF" points="704,565 704,566" /><polygon fill="#007BFF" points="438,565 439,565" /><polygon fill="#007BFF" points="668,564" /><polygon fill="#007BFF" points="628,564 629,564" /><polygon fill="#007BFF" points="620,564" /><polygon fill="#007BFF" points="596,564" /><polygon fill="#007BFF" points="532,564 533,564" /><polygon fill="#007BFF" points="530,564" /><polygon fill="#007BFF" points="528,564" /><polygon fill="#007BFF" points="500,564" /><polygon fill="#007BFF" points="491,564" /><polygon fill="#007BFF" points="260,564" /><polygon fill="#007BFF" points="261,562" /><polygon fill="#007BFF" points="855,561" /><polygon fill="#007BFF" points="856,556 856,557" /><polygon fill="#007BFF" points="857,552" /><polygon fill="#007BFF" points="858,548" /><polygon fill="#007BFF" points="271,547" /><polygon fill="#007BFF" points="859,544" /><polygon fill="#007BFF" points="273,544" /><polygon fill="#007BFF" points="860,540" /><polygon fill="#007BFF" points="251,540" /><polygon fill="#007BFF" points="253,537" /><polygon fill="#007BFF" points="249,537" /><polygon fill="#007BFF" points="280,534" /><polygon fill="#007BFF" points="255,534" /><polygon fill="#007BFF" points="246,532" /><polygon fill="#007BFF" points="862,531" /><polygon fill="#007BFF" points="282,531" /><polygon fill="#007BFF" points="284,528" /><polygon fill="#007BFF" points="863,527" /><polygon fill="#007BFF" points="260,527" /><polygon fill="#007BFF" points="243,527" /><polygon fill="#007BFF" points="262,524" /><polygon fill="#007BFF" points="864,523" /><polygon fill="#007BFF" points="240,522" /><polygon fill="#007BFF" points="289,521" /><polygon fill="#007BFF" points="264,521" /><polygon fill="#007BFF" points="239,520" /><polygon fill="#007BFF" points="865,519" /><polygon fill="#007BFF" points="291,518" /><polygon fill="#007BFF" points="237,517" /><polygon fill="#007BFF" points="293,515" /><polygon fill="#007BFF" points="236,515" /><polygon fill="#007BFF" points="866,514" /><polygon fill="#007BFF" points="269,514" /><polygon fill="#007BFF" points="271,511" /><polygon fill="#007BFF" points="867,510" /><polygon fill="#007BFF" points="233,510" /><polygon fill="#007BFF" points="298,508" /><polygon fill="#007BFF" points="273,508" /><polygon fill="#007BFF" points="868,506" /><polygon fill="#007BFF" points="300,505" /><polygon fill="#007BFF" points="275,505" /><polygon fill="#007BFF" points="230,505" /><polygon fill="#007BFF" points="869,502" /><polygon fill="#007BFF" points="302,502" /><polygon fill="#007BFF" points="227,500" /><polygon fill="#007BFF" points="304,499" /><polygon fill="#007BFF" points="280,498" /><polygon fill="#007BFF" points="870,497 870,498" /><polygon fill="#007BFF" points="871,493" /><polygon fill="#007BFF" points="309,492" /><polygon fill="#007BFF" points="284,492" /><polygon fill="#007BFF" points="221,490" /><polygon fill="#007BFF" points="872,489" /><polygon fill="#007BFF" points="311,489" /><polygon fill="#007BFF" points="286,489" /><polygon fill="#007BFF" points="313,486" /><polygon fill="#007BFF" points="873,485" /><polygon fill="#007BFF" points="218,485" /><polygon fill="#007BFF" points="291,482" /><polygon fill="#007BFF" points="874,480 874,481" /><polygon fill="#007BFF" points="215,480" /><polygon fill="#007BFF" points="293,479" /><polygon fill="#007BFF" points="214,478" /><polygon fill="#007BFF" points="875,476" /><polygon fill="#007BFF" points="295,476" /><polygon fill="#007BFF" points="322,473" /><polygon fill="#007BFF" points="211,473" /><polygon fill="#007BFF" points="876,472" /><polygon fill="#007BFF" points="298,472" /><polygon fill="#007BFF" points="324,470" /><polygon fill="#007BFF" points="300,469" /><polygon fill="#007BFF" points="877,468" /><polygon fill="#007BFF" points="208,468" /><polygon fill="#007BFF" points="302,466" /><polygon fill="#007BFF" points="878,464" /><polygon fill="#007BFF" points="304,463" /><polygon fill="#007BFF" points="205,463" /><polygon fill="#007BFF" points="879,460" /><polygon fill="#007BFF" points="331,460" /><polygon fill="#007BFF" points="202,458" /><polygon fill="#007BFF" points="333,457" /><polygon fill="#007BFF" points="880,456" /><polygon fill="#007BFF" points="201,456" /><polygon fill="#007BFF" points="335,454" /><polygon fill="#007BFF" points="311,453" /><polygon fill="#007BFF" points="199,453" /><polygon fill="#007BFF" points="881,451" /><polygon fill="#007BFF" points="337,451" /><polygon fill="#007BFF" points="198,451" /><polygon fill="#007BFF" points="313,450" /><polygon fill="#007BFF" points="882,447" /><polygon fill="#007BFF" points="514,447" /><polygon fill="#007BFF" points="195,446" /><polygon fill="#007BFF" points="732,444" /><polygon fill="#007BFF" points="515,444" /><polygon fill="#007BFF" points="342,444" /><polygon fill="#007BFF" points="883,443" /><polygon fill="#007BFF" points="517,441" /><polygon fill="#007BFF" points="344,441" /><polygon fill="#007BFF" points="192,441" /><polygon fill="#007BFF" points="733,440" /><polygon fill="#007BFF" points="884,439" /><polygon fill="#007BFF" points="346,438" /><polygon fill="#007BFF" points="322,437" /><polygon fill="#007BFF" points="734,436" /><polygon fill="#007BFF" points="189,436" /><polygon fill="#007BFF" points="885,435" /><polygon fill="#007BFF" points="521,435" /><polygon fill="#007BFF" points="886,431" /><polygon fill="#007BFF" points="735,431" /><polygon fill="#007BFF" points="524,431" /><polygon fill="#007BFF" points="186,431" /><polygon fill="#007BFF" points="327,430" /><polygon fill="#007BFF" points="526,428" /><polygon fill="#007BFF" points="353,428" /><polygon fill="#007BFF" points="736,427" /><polygon fill="#007BFF" points="329,427" /><polygon fill="#007BFF" points="887,426 887,427" /><polygon fill="#007BFF" points="355,425" /><polygon fill="#007BFF" points="182,424" /><polygon fill="#007BFF" points="737,423" /><polygon fill="#007BFF" points="888,422" /><polygon fill="#007BFF" points="530,422" /><polygon fill="#007BFF" points="331,422" /><polygon fill="#007BFF" points="180,421" /><polygon fill="#007BFF" points="738,419" /><polygon fill="#007BFF" points="359,419" /><polygon fill="#007BFF" points="889,418" /><polygon fill="#007BFF" points="331,417 331,418" /><polygon fill="#007BFF" points="739,415" /><polygon fill="#007BFF" points="362,415" /><polygon fill="#007BFF" points="330,414" /><polygon fill="#007BFF" points="176,414" /><polygon fill="#007BFF" points="537,412" /><polygon fill="#007BFF" points="364,412" /><polygon fill="#007BFF" points="740,410" /><polygon fill="#007BFF" points="891,409" /><polygon fill="#007BFF" points="539,409" /><polygon fill="#007BFF" points="366,409" /><polygon fill="#007BFF" points="173,409" /><polygon fill="#007BFF" points="326,407" /><polygon fill="#007BFF" points="741,406" /><polygon fill="#007BFF" points="368,406" /><polygon fill="#007BFF" points="892,405" /><polygon fill="#007BFF" points="324,404" /><polygon fill="#007BFF" points="170,404" /><polygon fill="#007BFF" points="543,403" /><polygon fill="#007BFF" points="370,403" /><polygon fill="#007BFF" points="742,402" /><polygon fill="#007BFF" points="323,402" /><polygon fill="#007BFF" points="169,402" /><polygon fill="#007BFF" points="893,401" /><polygon fill="#007BFF" points="546,399" /><polygon fill="#007BFF" points="743,398" /><polygon fill="#007BFF" points="320,397" /><polygon fill="#007BFF" points="166,397" /><polygon fill="#007BFF" points="894,396 894,397" /><polygon fill="#007BFF" points="548,396" /><polygon fill="#007BFF" points="319,395" /><polygon fill="#007BFF" points="744,393" /><polygon fill="#007BFF" points="550,393" /><polygon fill="#007BFF" points="895,392" /><polygon fill="#007BFF" points="317,392" /><polygon fill="#007BFF" points="379,390" /><polygon fill="#007BFF" points="316,390" /><polygon fill="#007BFF" points="745,389" /><polygon fill="#007BFF" points="896,388" /><polygon fill="#007BFF" points="381,387" /><polygon fill="#007BFF" points="160,387" /><polygon fill="#007BFF" points="746,385" /><polygon fill="#007BFF" points="313,385" /><polygon fill="#007BFF" points="897,384" /><polygon fill="#007BFF" points="557,383" /><polygon fill="#007BFF" points="157,382" /><polygon fill="#007BFF" points="747,381" /><polygon fill="#007BFF" points="898,380" /><polygon fill="#007BFF" points="386,380" /><polygon fill="#007BFF" points="310,380" /><polygon fill="#007BFF" points="748,377" /><polygon fill="#007BFF" points="561,377" /><polygon fill="#007BFF" points="388,377" /><polygon fill="#007BFF" points="899,376" /><polygon fill="#007BFF" points="307,375" /><polygon fill="#007BFF" points="153,375" /><polygon fill="#007BFF" points="390,374" /><polygon fill="#007BFF" points="749,373" /><polygon fill="#007BFF" points="306,373" /><polygon fill="#007BFF" points="900,371 900,372" /><polygon fill="#007BFF" points="392,371" /><polygon fill="#007BFF" points="566,370" /><polygon fill="#007BFF" points="150,370" /><polygon fill="#007BFF" points="750,368 750,369" /><polygon fill="#007BFF" points="394,368" /><polygon fill="#007BFF" points="303,368" /><polygon fill="#007BFF" points="901,367" /><polygon fill="#007BFF" points="568,367" /><polygon fill="#007BFF" points="147,365" /><polygon fill="#007BFF" points="751,364" /><polygon fill="#007BFF" points="902,363" /><polygon fill="#007BFF" points="299,361" /><polygon fill="#007BFF" points="752,360" /><polygon fill="#007BFF" points="144,360" /><polygon fill="#007BFF" points="903,359" /><polygon fill="#007BFF" points="401,358" /><polygon fill="#007BFF" points="753,356" /><polygon fill="#007BFF" points="296,356" /><polygon fill="#007BFF" points="403,355" /><polygon fill="#007BFF" points="577,354" /><polygon fill="#007BFF" points="754,352" /><polygon fill="#007BFF" points="405,352" /><polygon fill="#007BFF" points="579,351" /><polygon fill="#007BFF" points="293,351" /><polygon fill="#007BFF" points="905,350" /><polygon fill="#007BFF" points="407,349" /><polygon fill="#007BFF" points="755,348" /><polygon fill="#007BFF" points="137,348" /><polygon fill="#007BFF" points="582,347" /><polygon fill="#007BFF" points="906,346" /><polygon fill="#007BFF" points="290,346" /><polygon fill="#007BFF" points="410,345" /><polygon fill="#007BFF" points="584,344" /><polygon fill="#007BFF" points="289,344" /><polygon fill="#007BFF" points="756,343 756,344" /><polygon fill="#007BFF" points="134,343" /><polygon fill="#007BFF" points="907,342" /><polygon fill="#007BFF" points="412,342" /><polygon fill="#007BFF" points="586,341" /><polygon fill="#007BFF" points="133,341" /><polygon fill="#007BFF" points="757,339 757,340" /><polygon fill="#007BFF" points="414,339" /><polygon fill="#007BFF" points="286,339" /><polygon fill="#007BFF" points="908,338" /><polygon fill="#007BFF" points="131,338" /><polygon fill="#007BFF" points="416,336" /><polygon fill="#007BFF" points="130,336" /><polygon fill="#007BFF" points="758,335" /><polygon fill="#007BFF" points="909,334" /><polygon fill="#007BFF" points="591,334 590,335" /><polygon fill="#007BFF" points="283,334" /><polygon fill="#007BFF" points="418,333" /><polygon fill="#007BFF" points="128,333" /><polygon fill="#007BFF" points="282,332" /><polygon fill="#007BFF" points="759,331" /><polygon fill="#007BFF" points="593,331" /><polygon fill="#007BFF" points="127,331" /><polygon fill="#007BFF" points="910,329" /><polygon fill="#007BFF" points="595,328" /><polygon fill="#007BFF" points="760,327" /><polygon fill="#007BFF" points="279,327" /><polygon fill="#007BFF" points="423,326" /><polygon fill="#007BFF" points="761,323" /><polygon fill="#007BFF" points="425,323" /><polygon fill="#007BFF" points="122,323" /><polygon fill="#007BFF" points="599,322" /><polygon fill="#007BFF" points="276,322" /><polygon fill="#007BFF" points="912,321" /><polygon fill="#007BFF" points="121,321" /><polygon fill="#007BFF" points="427,320" /><polygon fill="#007BFF" points="762,319" /><polygon fill="#007BFF" points="913,317" /><polygon fill="#007BFF" points="429,317" /><polygon fill="#007BFF" points="273,317" /><polygon fill="#007BFF" points="763,315" /><polygon fill="#007BFF" points="604,315" /><polygon fill="#007BFF" points="272,315" /><polygon fill="#007BFF" points="914,313" /><polygon fill="#007BFF" points="606,312" /><polygon fill="#007BFF" points="270,312" /><polygon fill="#007BFF" points="115,311" /><polygon fill="#007BFF" points="764,310 764,311" /><polygon fill="#007BFF" points="434,310" /><polygon fill="#007BFF" points="269,310" /><polygon fill="#007BFF" points="915,309" /><polygon fill="#007BFF" points="436,307" /><polygon fill="#007BFF" points="765,306" /><polygon fill="#007BFF" points="610,306" /><polygon fill="#007BFF" points="112,306" /><polygon fill="#007BFF" points="916,304" /><polygon fill="#007BFF" points="111,304" /><polygon fill="#007BFF" points="766,302" /><polygon fill="#007BFF" points="613,302" /><polygon fill="#007BFF" points="440,301" /><polygon fill="#007BFF" points="109,301" /><polygon fill="#007BFF" points="615,299" /><polygon fill="#007BFF" points="108,299" /><polygon fill="#007BFF" points="918,296" /><polygon fill="#007BFF" points="617,296" /><polygon fill="#007BFF" points="444,296 443,297" /><polygon fill="#007BFF" points="257,296" /><polygon fill="#007BFF" points="768,295" /><polygon fill="#007BFF" points="254,294" /><polygon fill="#007BFF" points="105,294" /><polygon fill="#007BFF" points="447,293 446,294" /><polygon fill="#007BFF" points="252,293" /><polygon fill="#007BFF" points="919,292" /><polygon fill="#007BFF" points="770,292" /><polygon fill="#007BFF" points="452,292 451,293 450,293 450,294 449,295 448,295 447,296 446,296 446,297 443,300 443,301 439,305 438,304 439,305 439,306 438,307 438,308 436,310 436,311 434,313 434,314 431,317 431,319 430,320 430,321 429,322 428,322 428,323 426,325 426,326 425,327 426,327 427,328 426,329 424,329 423,330 423,331 421,333 420,333 420,334 418,336 419,337 418,338 417,338 416,339 416,340 417,341 416,342 415,342 414,343 414,344 409,349 409,350 408,351 408,352 406,354 406,355 405,356 405,357 400,362 399,361 400,362 400,364 397,367 397,368 395,370 395,371 392,374 393,375 392,376 391,376 390,377 390,378 388,380 388,381 387,382 387,383 386,384 385,384 385,385 383,387 383,388 382,389 382,390 380,392 380,393 379,394 378,394 377,393 378,394 379,394 380,395 379,396 377,396 376,397 375,396 377,398 375,400 374,400 373,399 372,400 373,399 374,400 374,401 372,403 372,404 370,406 371,406 372,407 371,408 369,408 369,409 366,412 366,413 364,415 364,416 362,418 362,419 358,423 357,422 358,423 358,425 355,428 355,429 352,432 351,431 352,432 352,433 351,434 351,435 349,437 349,438 346,441 346,442 344,444 344,445 343,446 343,447 342,448 341,448 340,447 342,449 341,450 340,450 340,451 337,454 337,455 336,456 336,457 335,458 335,460 334,461 333,460 333,461 330,464 329,463 330,464 330,465 328,467 327,466 326,467 327,466 328,467 328,471 327,472 325,472 326,473 325,474 324,474 321,477 320,476 323,479 322,480 321,480 320,479 319,480 318,479 320,481 320,482 319,483 318,482 318,483 319,484 319,485 318,486 317,485 316,485 315,486 316,487 315,488 314,488 313,489 313,490 312,491 312,492 308,496 307,495 306,496 307,495 308,496 308,497 306,499 306,500 304,502 305,503 304,504 303,504 303,505 300,508 300,509 297,512 297,513 296,514 296,515 294,517 294,518 292,520 293,521 292,522 291,522 290,523 290,524 289,525 288,525 287,524 288,525 288,526 286,528 286,529 284,531 284,532 283,533 283,534 279,538 278,537 279,538 279,539 277,541 276,540 277,541 277,542 275,544 275,545 273,547 273,548 270,551 269,550 270,551 270,553 266,557 266,559 265,560 264,560 264,561 263,562 263,563 262,564 262,566 260,568 261,569 260,570 259,570 259,572 258,573 258,575 257,576 257,578 256,579 256,583 255,584 255,587 254,588 254,590 255,591 254,592 253,592 253,594 252,595 251,594 251,593 251,594 252,595 252,599 251,600 251,602 252,603 251,604 250,604 251,605 250,606 250,608 249,609 249,612 248,613 248,618 247,619 247,621 246,622 246,624 247,625 246,626 245,626 245,629 246,630 246,631 245,632 244,631 244,633 243,634 243,638 242,639 242,641 241,642 241,645 240,646 240,650 239,651 239,654 238,655 239,656 238,657 238,659 237,660 237,663 236,664 236,667 235,668 235,669 236,668 237,669 237,670 235,672 234,672 234,675 233,676 233,679 232,680 232,683 231,684 231,688 230,689 230,690 231,691 230,692 230,694 229,695 229,696 228,697 228,701 227,702 227,705 226,706 226,710 225,711 225,713 224,714 224,718 223,719 223,723 222,724 222,726 221,727 222,727 223,728 223,729 222,730 221,729 221,730 220,731 222,731 222,730 223,729 224,730 224,731 264,731 265,730 266,731 356,731 358,729 359,730 360,729 361,729 362,728 363,728 364,727 365,727 368,724 368,723 372,719 372,718 373,717 373,715 374,714 374,712 375,711 375,708 376,707 376,704 377,703 377,699 378,698 378,695 379,694 379,691 380,690 380,687 379,686 379,685 380,684 381,685 381,683 382,682 382,680 381,679 382,678 383,678 383,675 384,674 384,671 385,670 385,667 384,666 385,665 386,665 386,663 387,662 386,662 385,661 386,660 387,660 387,658 386,657 386,656 387,655 388,656 388,655 389,654 390,655 389,654 389,652 388,651 389,650 389,649 390,648 390,645 391,644 391,641 392,640 392,635 393,634 392,633 393,632 394,632 394,628 395,627 395,624 396,623 396,620 397,619 397,618 396,617 398,615 398,612 399,611 399,608 400,607 399,606 400,605 400,604 401,603 401,600 400,599 400,598 401,597 402,598 402,597 403,596 403,594 404,593 403,592 404,591 405,591 405,590 406,589 406,588 407,587 407,586 408,585 408,584 409,583 410,583 409,582 410,581 411,581 412,580 412,579 413,578 413,577 412,576 413,575 414,575 415,576 418,573 419,573 422,570 423,570 424,571 423,572 424,571 423,570 425,568 426,568 427,567 428,567 429,566 430,566 431,565 432,565 433,564 435,564 434,563 435,562 436,562 437,563 440,563 441,562 703,562 704,563 705,563 706,564 706,567 705,568 705,571 704,572 704,575 703,576 703,579 702,580 702,583 701,584 701,588 700,589 700,592 699,593 699,597 698,598 698,599 697,600 698,601 697,602 697,604 696,605 696,609 695,610 695,613 694,614 694,616 695,617 695,618 694,619 693,618 693,622 692,623 692,625 691,626 691,629 690,630 690,634 689,635 689,637 688,638 688,641 687,642 687,646 686,647 686,650 685,651 685,655 684,656 684,659 683,660 683,662 682,663 682,667 681,668 681,671 680,672 680,676 679,677 679,679 678,680 678,683 677,684 677,686 678,687 676,689 677,690 676,691 676,692 675,693 675,695 674,696 674,700 673,701 673,704 672,705 672,708 671,709 671,711 670,712 670,717 669,718 669,720 668,721 668,724 669,725 668,726 667,726 667,729 666,730 667,731 670,731 670,730 671,729 672,730 672,731 693,731 694,730 695,731 730,731 731,730 732,731 754,731 755,730 756,730 757,731 781,731 782,730 783,731 790,731 791,730 792,731 805,731 806,732 805,731 806,730 807,730 808,731 807,730 808,729 808,728 809,727 810,727 812,725 812,724 814,722 814,721 815,720 815,717 816,716 815,715 817,713 817,710 818,709 818,705 819,704 819,701 820,700 820,698 818,696 819,695 820,695 821,696 821,693 822,692 822,688 823,687 823,684 824,683 824,680 825,679 825,677 824,676 825,675 826,675 826,672 827,671 827,669 828,668 827,667 828,666 828,665 827,664 828,663 829,663 829,660 830,659 830,656 831,655 831,650 832,649 832,647 833,646 832,647 831,646 831,645 832,644 833,644 833,642 834,641 834,640 833,639 834,638 835,638 835,635 836,634 836,633 835,632 836,631 835,630 837,628 837,626 838,625 838,622 839,621 839,617 840,616 840,613 841,612 840,611 841,610 840,609 842,607 842,604 843,603 842,602 843,601 843,600 844,599 844,597 845,596 845,592 846,591 846,589 847,588 847,584 848,583 847,582 849,580 850,581 850,582 850,581 848,579 849,578 849,575 848,574 849,573 850,573 850,571 849,570 850,569 851,569 851,567 850,566 851,565 852,565 852,563 853,562 853,559 854,558 854,555 855,554 855,549 856,548 856,545 857,544 857,542 858,541 858,538 859,537 859,534 860,533 860,529 861,528 861,525 862,524 862,522 863,521 863,517 864,516 864,512 863,511 865,509 865,508 866,507 866,503 867,502 867,500 868,499 868,496 869,495 869,492 870,491 870,488 871,487 871,483 872,482 872,480 871,479 871,478 872,477 873,478 873,477 872,476 872,475 871,474 872,473 871,472 873,470 874,471 874,473 874,470 875,469 875,466 876,465 876,461 877,460 877,458 878,457 878,454 879,453 879,450 880,449 880,446 881,445 881,442 880,441 882,439 881,438 882,437 883,437 883,433 884,432 884,429 885,428 885,424 886,423 886,420 887,419 887,416 888,415 888,411 889,410 889,409 888,408 889,407 888,406 890,404 890,403 891,402 891,400 890,399 890,398 892,396 892,394 893,393 893,391 894,390 894,387 895,386 895,382 896,381 896,379 895,378 897,376 895,374 895,372 897,370 898,371 898,372 897,373 898,372 898,369 897,370 896,370 895,369 898,366 899,366 898,365 899,364 900,364 900,361 901,360 901,357 902,356 902,354 903,353 904,354 904,355 904,354 903,353 903,348 904,347 904,343 905,342 905,341 904,340 904,339 905,338 906,339 906,336 905,335 906,334 907,334 907,332 908,331 908,328 909,327 909,323 910,322 910,320 911,319 911,316 912,315 912,311 911,310 913,308 913,306 914,305 914,304 913,303 915,301 915,298 916,297 916,295 917,294 917,292 917,293 916,294 915,293 914,293 913,292 888,292 888,293 887,294 886,293 886,292 880,292 880,293 879,294 878,294 877,293 878,292 840,292 840,293 839,294 838,293 838,292 802,292 801,293 800,292 776,292 775,293 774,292 773,292 770,295 770,296 769,297 769,300 768,301 768,303 767,304 768,305 767,306 767,308 766,309 766,313 765,314 765,316 764,317 764,321 763,322 763,325 762,326 762,328 761,329 761,332 760,333 760,336 759,337 759,341 758,342 758,345 757,346 758,347 757,348 757,350 756,351 757,352 756,353 757,353 758,354 757,355 756,355 755,356 755,358 756,359 755,360 754,360 754,361 753,362 753,365 752,366 752,370 751,371 751,375 750,376 750,379 749,380 749,381 750,382 748,384 748,387 747,388 747,391 746,392 746,395 745,396 745,399 744,400 744,403 743,404 743,408 742,409 742,414 741,415 741,416 740,417 740,420 739,421 740,422 739,423 739,425 738,426 738,428 737,429 737,433 736,434 736,437 735,438 735,443 734,444 734,445 733,446 733,448 732,449 731,449 730,450 515,450 514,449 513,450 511,448 511,446 512,445 511,444 513,442 513,441 515,439 516,439 515,438 516,437 518,437 519,438 518,437 518,436 519,435 519,434 520,433 519,432 520,431 521,431 522,430 522,429 524,427 524,426 526,424 527,424 528,425 527,424 527,423 528,422 528,421 529,420 529,419 530,418 531,418 532,419 530,417 531,416 532,416 532,415 535,412 535,410 539,406 539,405 541,403 541,402 542,401 542,400 544,398 544,396 545,395 546,395 547,394 547,393 551,389 552,390 551,389 551,388 552,387 552,386 554,384 554,382 555,381 556,381 558,379 559,380 558,379 558,378 559,377 559,376 561,374 561,373 564,370 563,371 562,371 561,370 563,368 564,368 565,367 566,367 566,366 569,363 570,364 568,362 569,361 569,360 570,359 571,359 574,356 575,357 574,356 574,355 575,354 575,352 576,351 577,351 577,350 579,348 579,347 580,346 579,345 580,344 581,344 584,341 584,340 587,337 588,338 587,337 586,337 585,338 584,338 583,337 585,335 588,335 588,334 591,331 591,330 592,329 592,327 593,326 594,326 596,324 597,325 596,324 596,322 599,319 599,318 601,316 601,315 603,313 603,311 604,310 605,310 607,308 608,309 607,308 607,306 610,303 610,302 612,300 612,299 615,296 615,294 617,292 524,292 524,294 525,294 526,295 525,296 521,296 520,295 520,294 521,293 522,294 521,293 522,292 496,292 495,293 494,292" /><polygon fill="#007BFF" points="250,292" /><polygon fill="#007BFF" points="108,292 107,293 107,294 108,295 108,296 110,298 110,299 111,300 111,301 113,303 113,304 114,305 114,306 115,307 115,308 117,310 117,311 119,313 119,315 118,316 119,315 121,317 121,318 122,319 123,319 124,320 123,321 124,322 124,323 125,324 125,325 124,326 125,325 126,325 128,327 128,329 129,330 129,331 131,333 131,334 132,335 132,336 133,336 134,337 133,338 135,340 135,341 136,342 136,343 137,344 137,345 139,347 139,348 140,349 140,350 141,351 141,352 140,353 141,352 142,352 143,353 143,354 144,355 144,357 146,359 146,360 148,362 148,363 149,364 149,365 151,367 151,368 152,369 152,370 153,371 153,372 155,374 155,375 156,376 156,377 158,379 158,380 159,381 159,382 160,383 160,384 162,386 162,387 164,389 164,391 163,392 164,391 167,394 167,395 168,396 168,397 169,398 169,399 171,399 172,400 171,401 172,401 174,403 173,404 172,404 173,405 173,406 176,409 176,411 177,412 178,412 179,413 178,414 180,416 180,418 179,419 180,418 182,420 182,421 184,423 184,424 185,425 185,426 186,427 186,428 185,429 186,428 188,430 188,431 189,432 189,433 188,434 189,433 190,433 191,434 191,436 192,437 192,438 195,441 195,443 197,445 197,446 198,447 198,448 200,450 200,451 201,452 201,453 203,455 203,456 204,457 204,458 205,459 205,460 207,462 207,463 208,464 208,465 210,467 210,468 211,469 211,470 213,472 213,473 215,475 215,476 216,477 216,478 218,480 218,482 220,484 220,485 221,486 221,487 223,489 223,490 224,491 224,492 223,493 224,492 225,493 225,494 224,495 225,494 227,496 227,497 229,499 229,500 230,501 230,502 232,504 232,505 233,506 233,507 235,509 235,510 236,511 236,512 238,514 238,515 239,516 239,517 241,519 241,520 242,521 242,522 244,524 244,525 245,525 246,526 245,527 246,528 247,528 248,529 247,530 248,531 248,532 249,533 249,534 251,536 251,537 251,536 252,535 252,534 253,533 253,531 254,530 255,531 255,530 256,529 256,527 257,526 258,527 258,526 260,524 260,523 261,522 261,521 263,519 263,518 264,517 265,517 266,518 265,517 265,515 269,511 269,509 271,507 271,506 274,503 274,502 275,501 276,501 276,500 277,499 277,498 281,494 282,495 280,493 280,492 287,485 287,484 288,483 288,482 290,480 290,478 291,477 292,477 293,476 293,475 294,474 294,473 295,472 295,471 296,470 297,470 297,469 300,466 300,465 302,463 302,462 303,461 303,460 306,457 306,454 307,453 308,454 308,452 309,451 310,451 310,450 312,448 311,448 310,447 311,446 314,446 313,445 314,444 315,444 315,443 317,441 317,440 318,439 319,439 320,440 319,439 319,438 318,437 320,435 321,435 321,433 323,431 324,431 325,430 325,429 327,427 327,426 328,425 328,424 329,423 329,417 328,416 328,414 327,413 327,412 326,411 326,410 327,409 326,410 325,409 324,409 323,408 324,407 322,405 322,404 320,402 320,400 318,398 318,397 317,396 317,395 315,393 315,392 314,391 314,390 311,387 311,385 309,383 309,382 308,381 308,380 307,379 307,378 306,377 305,377 304,376 304,373 303,372 303,371 301,369 301,368 300,367 300,366 299,365 299,364 300,363 299,364 298,364 297,363 296,363 295,362 296,361 296,360 295,359 295,358 294,357 294,356 293,355 293,354 291,352 291,351 289,349 289,348 287,346 287,344 286,343 286,342 284,340 284,339 283,338 283,337 281,335 281,334 279,332 279,330 280,329 279,330 276,327 276,326 275,325 275,324 274,323 274,322 272,320 272,319 271,318 271,317 270,316 270,315 268,313 268,312 267,311 267,310 266,309 266,308 265,307 264,307 263,306 264,305 261,302 260,303 259,302 259,300 257,298 256,298 254,296 253,296 252,295 251,295 250,294 249,295 247,293 246,293 245,292 244,293 243,292 228,292 229,293 228,294 227,294 226,293 226,292 216,292 215,293 214,292 112,292 112,295 111,296 110,296 109,295 110,294 110,293 109,292" /><polygon fill="#007BFF" points="104,292" /><polygon fill="#007BFF" points="247,291" /><polygon fill="#007BFF" points="905,290 917,290" /><polygon fill="#007BFF" points="896,290 903,290" /><polygon fill="#007BFF" points="848,290 894,290" /><polygon fill="#007BFF" points="844,290 846,290" /><polygon fill="#007BFF" points="784,290 842,290" /><polygon fill="#007BFF" points="778,290 782,290" /><polygon fill="#007BFF" points="774,290" /><polygon fill="#007BFF" points="621,290" /><polygon fill="#007BFF" points="606,290 619,290" /><polygon fill="#007BFF" points="591,290 604,290" /><polygon fill="#007BFF" points="587,290 588,290" /><polygon fill="#007BFF" points="585,290" /><polygon fill="#007BFF" points="534,290 583,290" /><polygon fill="#007BFF" points="522,290 532,290" /><polygon fill="#007BFF" points="520,290" /><polygon fill="#007BFF" points="507,290 518,290" /><polygon fill="#007BFF" points="499,290 505,290" /><polygon fill="#007BFF" points="488,290" /><polygon fill="#007BFF" points="478,290" /><polygon fill="#007BFF" points="476,290" /><polygon fill="#007BFF" points="468,290 474,290" /><polygon fill="#007BFF" points="464,290 466,290" /><polygon fill="#007BFF" points="461,290 462,290" /><polygon fill="#007BFF" points="453,290" /><polygon fill="#007BFF" points="241,290 243,290" /><polygon fill="#007BFF" points="238,290" /><polygon fill="#007BFF" points="233,290 236,290" /><polygon fill="#007BFF" points="211,290 231,290" /><polygon fill="#007BFF" points="193,290 200,290" /><polygon fill="#007BFF" points="178,290 190,290" /><polygon fill="#007BFF" points="163,290 176,290" /><polygon fill="#007BFF" points="157,290 161,290" /><polygon fill="#007BFF" points="152,290 155,290" /><polygon fill="#007BFF" points="142,290 150,290" /><polygon fill="#007BFF" points="133,290 140,290" /><polygon fill="#007BFF" points="129,290 131,290" /><polygon fill="#007BFF" points="126,290" /><polygon fill="#007BFF" points="122,290 124,290" /><polygon fill="#007BFF" points="112,290 120,290" /><polygon fill="#007BFF" points="108,290 110,290" /><polygon fill="#007BFF" points="105,290 106,290" /></svg>